<?xml version="1.0" encoding="UTF-8"?>
<svg version="1.1" xmlns="http://www.w3.org/2000/svg" width="1020" height="918">
<path d="M0 0 C0 93.39 0 186.78 0 283 C6.93 283.33 13.86 283.66 21 284 C24.8402265 284.48840786 28.4833441 284.98764689 32.25 285.75 C33.6117334 286.01441895 33.6117334 286.01441895 35.00097656 286.28417969 C50.20630617 289.34447258 64.05329521 294.23015629 78 301 C78.66805664 301.32371582 79.33611328 301.64743164 80.02441406 301.98095703 C89.70730254 306.74489941 98.4309582 312.4582423 107 319 C107.91007812 319.68449219 108.82015625 320.36898438 109.7578125 321.07421875 C146.32262707 349.72575255 169.28172702 392.28948304 174.984375 438.17797852 C179.81862917 481.57518486 169.32012214 526.77457338 143 562 C142.53529297 562.62261719 142.07058594 563.24523437 141.59179688 563.88671875 C136.73289988 570.33473011 131.79526377 576.36571578 126 582 C127.37372818 585.08084345 128.94115679 587.19027857 131.32271767 589.56881332 C132.01292869 590.26300645 132.70313972 590.95719957 133.41426623 591.67242885 C134.55530293 592.80472702 134.55530293 592.80472702 135.71939087 593.9598999 C136.52555953 594.76777742 137.3317282 595.57565493 138.16232622 596.40801358 C140.87382731 599.12281761 143.59243112 601.83039618 146.31103516 604.53808594 C148.25317844 606.4785525 150.19381181 608.42052656 152.13450623 610.36244202 C156.31809252 614.5470773 160.50532677 618.72803344 164.69505692 622.90651703 C170.75270556 628.94791559 176.80482783 634.99482544 182.85561304 641.04309717 C192.67262082 650.85572708 202.49408717 660.66388181 212.31835938 670.46923828 C221.86204236 679.99456486 231.40362373 689.52198855 240.94238281 699.05224609 C241.53029549 699.63963333 242.11820818 700.22702056 242.72393639 700.83220741 C245.67329155 703.7789525 248.62260539 706.72573893 251.5718987 709.67254591 C276.04153154 734.12144338 300.51840107 758.56308485 325 783 C324.06135676 784.11039931 323.12048888 785.21891828 322.17871094 786.32666016 C321.39315826 787.25292709 321.39315826 787.25292709 320.59173584 788.19790649 C318.30939808 790.7818692 315.81111267 793.0699986 313.25 795.375 C312.72905762 795.84486328 312.20811523 796.31472656 311.67138672 796.79882812 C310.61342094 797.75257831 309.55403679 798.70475775 308.49316406 799.65527344 C307.14921242 800.86562099 305.8197481 802.09200877 304.4921875 803.3203125 C298.17222833 809.13968084 291.50933708 814.43131456 284.70996094 819.67089844 C283.18086809 820.85941663 281.67106997 822.07266253 280.1640625 823.2890625 C263.97208091 836.19828618 246.0510683 847.87077683 228 858 C227.15501953 858.47711426 226.31003906 858.95422852 225.43945312 859.44580078 C166.51623407 892.53673902 101.18652166 912.08097875 33.8125 917.1875 C32.19420288 917.31354614 32.19420288 917.31354614 30.54321289 917.44213867 C20.30246697 918.14858136 10.34617887 918 0 918 C0 824.61 0 731.22 0 635 C-6.93 634.67 -13.86 634.34 -21 634 C-24.8402265 633.51159214 -28.4833441 633.01235311 -32.25 632.25 C-33.6117334 631.98558105 -33.6117334 631.98558105 -35.00097656 631.71582031 C-50.20630617 628.65552742 -64.05329521 623.76984371 -78 617 C-78.66805664 616.67628418 -79.33611328 616.35256836 -80.02441406 616.01904297 C-89.70730254 611.25510059 -98.4309582 605.5417577 -107 599 C-107.91007813 598.31550781 -108.82015625 597.63101563 -109.7578125 596.92578125 C-146.32262707 568.27424745 -169.28172702 525.71051696 -174.984375 479.82202148 C-180.07807792 434.09573801 -167.9436158 387.45080647 -139.46484375 351.03710938 C-135.23026478 345.77908357 -130.83324193 340.72136133 -126 336 C-127.37372818 332.91915655 -128.94115679 330.80972143 -131.32271767 328.43118668 C-132.01292869 327.73699355 -132.70313972 327.04280043 -133.41426623 326.32757115 C-134.17495736 325.57270571 -134.93564849 324.81784026 -135.71939087 324.0401001 C-136.52555953 323.23222258 -137.3317282 322.42434507 -138.16232622 321.59198642 C-140.87382731 318.87718239 -143.59243112 316.16960382 -146.31103516 313.46191406 C-148.25317844 311.5214475 -150.19381181 309.57947344 -152.13450623 307.63755798 C-156.31809252 303.4529227 -160.50532677 299.27196656 -164.69505692 295.09348297 C-170.75270556 289.05208441 -176.80482783 283.00517456 -182.85561304 276.95690283 C-192.67262082 267.14427292 -202.49408717 257.33611819 -212.31835938 247.53076172 C-221.86204236 238.00543514 -231.40362373 228.47801145 -240.94238281 218.94775391 C-241.53029549 218.36036667 -242.11820818 217.77297944 -242.72393639 217.16779259 C-245.67329155 214.2210475 -248.62260539 211.27426107 -251.5718987 208.32745409 C-276.04153154 183.87855662 -300.51840107 159.43691515 -325 135 C-324.06135676 133.88960069 -323.12048888 132.78108172 -322.17871094 131.67333984 C-321.65500916 131.05582855 -321.13130737 130.43831726 -320.59173584 129.80209351 C-318.30939808 127.2181308 -315.81111267 124.9300014 -313.25 122.625 C-312.46858643 121.92020508 -312.46858643 121.92020508 -311.67138672 121.20117188 C-310.61342094 120.24742169 -309.55403679 119.29524225 -308.49316406 118.34472656 C-307.14921242 117.13437901 -305.8197481 115.90799123 -304.4921875 114.6796875 C-298.17222833 108.86031916 -291.50933708 103.56868544 -284.70996094 98.32910156 C-283.18086809 97.14058337 -281.67106997 95.92733747 -280.1640625 94.7109375 C-263.97208091 81.80171382 -246.0510683 70.12922317 -228 60 C-227.15501953 59.52288574 -226.31003906 59.04577148 -225.43945312 58.55419922 C-166.51623407 25.46326098 -101.18652166 5.91902125 -33.8125 0.8125 C-32.19420288 0.68645386 -32.19420288 0.68645386 -30.54321289 0.55786133 C-20.30246697 -0.14858136 -10.34617887 0 0 0 Z " fill="#6B7180" transform="translate(510,0)"/>
<path d="M0 0 C93.72 0 187.44 0 284 0 C284.66 7.59 285.32 15.18 286 23 C292.83614551 62.13103981 308.60812002 93.46425971 335 123 C333.62373101 126.08865121 332.04893841 128.20017529 329.66166496 130.58443069 C328.96797054 131.28210721 328.27427612 131.97978373 327.55956066 132.69860196 C326.79497858 133.45735836 326.0303965 134.21611475 325.24264526 134.99786377 C324.43239305 135.80982484 323.62214083 136.6217859 322.78733552 137.45835185 C320.53794364 139.71046993 318.28411789 141.95803919 316.02835679 144.20377445 C313.59666797 146.62683122 311.17075665 149.05566008 308.74414062 151.48379517 C304.53927345 155.68971135 300.33075816 159.8919484 296.11974716 164.09171295 C290.03132952 170.16388068 283.94843805 176.24155958 277.86688377 182.32060036 C267.99996169 192.18314454 258.12858099 202.04121355 248.25439453 211.89648438 C238.66220897 221.4703136 229.07212497 231.04623989 219.48486328 240.625 C218.8939636 241.21537423 218.30306393 241.80574846 217.6942582 242.41401282 C214.72991898 245.37574198 211.76562106 248.33751248 208.80134368 251.29930353 C184.2072967 275.87261505 159.60601299 300.43867064 135 325 C133.88280721 324.04813307 132.76642829 323.09531086 131.65039062 322.14208984 C131.02861938 321.61159027 130.40684814 321.0810907 129.76623535 320.53451538 C123.28850077 314.9066225 117.55056598 308.52474694 112 302 C111.22398438 301.113125 110.44796875 300.22625 109.6484375 299.3125 C101.22478467 289.61822255 93.59562129 279.34828601 86 269 C85.4726123 268.28859863 84.94522461 267.57719727 84.40185547 266.84423828 C58.71894206 232.11250941 39.20386529 192.69336836 25 152 C24.6277832 150.93797363 24.25556641 149.87594727 23.87207031 148.78173828 C11.9130577 114.23517882 4.70907345 78.55259565 1.1875 42.1875 C1.06334717 40.9512085 0.93919434 39.71491699 0.8112793 38.44116211 C-0.32060518 25.5309963 0 13.11851005 0 0 Z " fill="#EBF2F3" transform="translate(0,472)"/>
<path d="M0 0 C1.11719279 0.95186693 2.23357171 1.90468914 3.34960938 2.85791016 C3.97138062 3.38840973 4.59315186 3.9189093 5.23376465 4.46548462 C11.71149923 10.0933775 17.44943402 16.47525306 23 23 C23.77601563 23.886875 24.55203125 24.77375 25.3515625 25.6875 C33.77521533 35.38177745 41.40437871 45.65171399 49 56 C49.5273877 56.71140137 50.05477539 57.42280273 50.59814453 58.15576172 C76.28105794 92.88749059 95.79613471 132.30663164 110 173 C110.3722168 174.06202637 110.74443359 175.12405273 111.12792969 176.21826172 C123.0869423 210.76482118 130.29092655 246.44740435 133.8125 282.8125 C133.99872925 284.66693726 133.99872925 284.66693726 134.1887207 286.55883789 C135.32060518 299.4690037 135 311.88148995 135 325 C41.28 325 -52.44 325 -149 325 C-149.66 317.41 -150.32 309.82 -151 302 C-157.83614551 262.86896019 -173.60812002 231.53574029 -200 202 C-198.62373101 198.91134879 -197.04893841 196.79982471 -194.66166496 194.41556931 C-193.96797054 193.71789279 -193.27427612 193.02021627 -192.55956066 192.30139804 C-191.79497858 191.54264164 -191.0303965 190.78388525 -190.24264526 190.00213623 C-189.43239305 189.19017516 -188.62214083 188.3782141 -187.78733552 187.54164815 C-185.53794364 185.28953007 -183.28411789 183.04196081 -181.02835679 180.79622555 C-178.59666797 178.37316878 -176.17075665 175.94433992 -173.74414062 173.51620483 C-169.53927345 169.31028865 -165.33075816 165.1080516 -161.11974716 160.90828705 C-155.03132952 154.83611932 -148.94843805 148.75844042 -142.86688377 142.67939964 C-132.99996169 132.81685546 -123.12858099 122.95878645 -113.25439453 113.10351562 C-103.66220897 103.5296864 -94.07212497 93.95376011 -84.48486328 84.375 C-83.8939636 83.78462577 -83.30306393 83.19425154 -82.6942582 82.58598718 C-79.72991898 79.62425802 -76.76562106 76.66248752 -73.80134368 73.70069647 C-49.2072967 49.12738495 -24.60601299 24.56132936 0 0 Z " fill="#323447" transform="translate(885,121)"/>
<path d="M0 0 C3.08865121 1.37626899 5.20017529 2.95106159 7.58443069 5.33833504 C8.28210721 6.03202946 8.97978373 6.72572388 9.69860196 7.44043934 C10.45735836 8.20502142 11.21611475 8.9696035 11.99786377 9.75735474 C12.80982484 10.56760695 13.6217859 11.37785917 14.45835185 12.21266448 C16.71046993 14.46205636 18.95803919 16.71588211 21.20377445 18.97164321 C23.62683122 21.40333203 26.05566008 23.82924335 28.48379517 26.25585938 C32.68971135 30.46072655 36.8919484 34.66924184 41.09171295 38.88025284 C47.16388068 44.96867048 53.24155958 51.05156195 59.32060036 57.13311623 C69.18314454 67.00003831 79.04121355 76.87141901 88.89648438 86.74560547 C98.4703136 96.33779103 108.04623989 105.92787503 117.625 115.51513672 C118.21537423 116.1060364 118.80574846 116.69693607 119.41401282 117.3057418 C122.37574198 120.27008102 125.33751248 123.23437894 128.29930353 126.19865632 C152.87261505 150.7927033 177.43867064 175.39398701 202 200 C201.06135676 201.11039931 200.12048888 202.21891828 199.17871094 203.32666016 C198.65500916 203.94417145 198.13130737 204.56168274 197.59173584 205.19790649 C195.30939808 207.7818692 192.81111267 210.0699986 190.25 212.375 C189.72905762 212.84486328 189.20811523 213.31472656 188.67138672 213.79882812 C187.61342094 214.75257831 186.55403679 215.70475775 185.49316406 216.65527344 C184.14921242 217.86562099 182.8197481 219.09200877 181.4921875 220.3203125 C175.17222833 226.13968084 168.50933708 231.43131456 161.70996094 236.67089844 C160.18086809 237.85941663 158.67106997 239.07266253 157.1640625 240.2890625 C140.97208091 253.19828618 123.0510683 264.87077683 105 275 C104.15501953 275.47711426 103.31003906 275.95422852 102.43945312 276.44580078 C43.51623407 309.53673902 -21.81347834 329.08097875 -89.1875 334.1875 C-90.80579712 334.31354614 -90.80579712 334.31354614 -92.45678711 334.44213867 C-102.69753303 335.14858136 -112.65382113 335 -123 335 C-123 241.28 -123 147.56 -123 51 C-111.615 50.01 -111.615 50.01 -100 49 C-62.28370617 43.04479571 -27.19246725 27.19246725 0 0 Z " fill="#070708" transform="translate(633,583)"/>
<path d="M0 0 C0 93.72 0 187.44 0 284 C-7.92 284.66 -15.84 285.32 -24 286 C-28.10327138 286.55772621 -31.97755271 287.14543407 -36 288 C-37.27230469 288.25394531 -38.54460937 288.50789063 -39.85546875 288.76953125 C-69.2116326 294.92050899 -97.10980057 309.92350126 -118.58203125 330.8203125 C-121 333 -121 333 -125 335 C-191 269 -257 203 -325 135 C-321.09129657 130.439846 -317.63374366 126.57036929 -313.25 122.625 C-312.46858643 121.92020508 -312.46858643 121.92020508 -311.67138672 121.20117188 C-310.61342094 120.24742169 -309.55403679 119.29524225 -308.49316406 118.34472656 C-307.14921242 117.13437901 -305.8197481 115.90799123 -304.4921875 114.6796875 C-298.17222833 108.86031916 -291.50933708 103.56868544 -284.70996094 98.32910156 C-283.18086809 97.14058337 -281.67106997 95.92733747 -280.1640625 94.7109375 C-263.97208091 81.80171382 -246.0510683 70.12922317 -228 60 C-227.15501953 59.52288574 -226.31003906 59.04577148 -225.43945312 58.55419922 C-166.51623407 25.46326098 -101.18652166 5.91902125 -33.8125 0.8125 C-32.19420288 0.68645386 -32.19420288 0.68645386 -30.54321289 0.55786133 C-20.30246697 -0.14858136 -10.34617887 0 0 0 Z " fill="#070708" transform="translate(510,0)"/>
</svg>
